# xmcd
#
# Track frame offsets:
#	150
#	11740
#	23560
#	49091
#	60067
#	71601
#	85078
#	99853
#	109967
#	122900
#	142018
#	159945
#	176432
#	192481
#	203273
#	218029
#	230990
#	243559
#	255327
#	267238
#	279808
#
# Disc length: 3967 seconds
#
# Revision: 1
# Processed by: cddbd v1.5.2PL0 Copyright (c) Steve Scherf et al.
# Submitted via: audiograbber 1.82.02
#
DISCID=180f7d15
DTITLE=Ryan Somerville - Cool The Songs Of Glenn Erickson
DYEAR=2012
DGENRE=
TTITLE0=I don앖 get better than this
TTITLE1=I앏l drik to that
TTITLE2=Think of you
TTITLE3=Cool
TTITLE4=One too many memories
TTITLE5=La freeway woman
TTITLE6=You never left me
TTITLE7=When the big one comes
TTITLE8=Loser압hall of fame
TTITLE9=If could have you
TTITLE10=Life is a journey
TTITLE11=She압 good, to bad she압 gone
TTITLE12=Marry an ugly woman
TTITLE13=My pickup truck
TTITLE14=Love the one who압 there
TTITLE15=Thinking
TTITLE16=The key to happiness
TTITLE17=Fool for rock and roll
TTITLE18=My favorite nursery rhyme
TTITLE19=Even on a bad day
TTITLE20=On My own funeral
EXTD=
EXTT0=
EXTT1=
EXTT2=
EXTT3=
EXTT4=
EXTT5=
EXTT6=
EXTT7=
EXTT8=
EXTT9=
EXTT10=
EXTT11=
EXTT12=
EXTT13=
EXTT14=
EXTT15=
EXTT16=
EXTT17=
EXTT18=
EXTT19=
EXTT20=
PLAYORDER=
